<?xml version="1.0" encoding="utf-8"?>
<!-- Generator: Adobe Illustrator 27.5.0, SVG Export Plug-In . SVG Version: 6.00 Build 0)  -->
<svg version="1.1" xmlns="http://www.w3.org/2000/svg" xmlns:xlink="http://www.w3.org/1999/xlink" x="0px" y="0px"
	 viewBox="0 0 750 500" style="enable-background:new 0 0 750 500;" xml:space="preserve">
<g id="BACKGROUND_1_">
	<rect style="fill:#F9F9F9;" width="750" height="500"/>
</g>
<g id="OBJECTS">
	<g>
		<linearGradient id="SVGID_1_" gradientUnits="userSpaceOnUse" x1="214.4589" y1="296.1635" x2="182.0193" y2="186.9767">
			<stop  offset="0.004" style="stop-color:#FFE584"/>
			<stop  offset="1" style="stop-color:#D3EADD"/>
		</linearGradient>
		<path style="fill:url(#SVGID_1_);" d="M245.836,303.168c-38.098,26.332-119.736,10.022-129.758-61.714
			c-10.022-71.736,27.956-134.11,69.099-126.132c41.143,7.978,12.132,53.868,63.297,81.824
			C299.638,225.102,281.704,278.377,245.836,303.168z"/>
		<path style="fill:none;stroke:#423A64;stroke-linecap:round;stroke-linejoin:round;stroke-miterlimit:10;" d="M148.195,431.874
			c-2.598-73.169-76.743-91.157-37.919-197.903c39.24-107.89,173.407-84.905,243.363-42.667s113.209,81.008,217.648,61.359
			c103.406-19.454,84.78,129.929,13.751,180.107"/>
		<path style="fill:#FFE584;" d="M619.286,434.245c0,0,36.923-45.823-7.385-93.725c-44.308-47.902-100.66-14.671-143.956-39.99
			c-43.296-25.319-69.335-54.711-118.136-47.245c-64.018,9.794-75.112,75.148-124.092,76.229
			c-48.98,1.081-108.057,44.862-89.068,104.73H619.286z"/>
		
			<linearGradient id="SVGID_00000145036776349059630330000017731989454090536879_" gradientUnits="userSpaceOnUse" x1="536.8363" y1="300.4774" x2="571.6495" y2="212.6532">
			<stop  offset="0.004" style="stop-color:#FFE584"/>
			<stop  offset="1" style="stop-color:#D3EADD"/>
		</linearGradient>
		<path style="fill:url(#SVGID_00000145036776349059630330000017731989454090536879_);" d="M467.235,229.546
			c-10.456,37.71,39.115,66.979,92.447,68.724c69.099,2.261,126.301-61.435,91.253-101.651
			c-23.209-26.631-59.448,14.536-91.076,14.536S477.118,193.902,467.235,229.546z"/>
	</g>
	<g>
		<g>
			<g>
				
					<linearGradient id="SVGID_00000133525043741803479130000003744181745569246346_" gradientUnits="userSpaceOnUse" x1="209.7763" y1="357.3661" x2="167.4466" y2="286.9485">
					<stop  offset="0" style="stop-color:#FAB217"/>
					<stop  offset="0.9104" style="stop-color:#F9C662"/>
				</linearGradient>
				<path style="fill:url(#SVGID_00000133525043741803479130000003744181745569246346_);" d="M202.847,354.044
					c-22.022,9.568-53.011,2.267-58.549-31.755c-5.928-36.416,40.851-63.967,68.044-37.582
					C241.698,313.19,224.275,344.733,202.847,354.044z"/>
				<path style="fill:none;stroke:#F9F9F9;stroke-linecap:round;stroke-linejoin:round;stroke-miterlimit:10;" d="M181.484,305.319
					c0,0,37.187,50.76,32.703,116.177"/>
			</g>
			<g>
				
					<linearGradient id="SVGID_00000146476698169233421630000016848453276758419121_" gradientUnits="userSpaceOnUse" x1="256.6396" y1="345.2325" x2="267.321" y2="280.3535">
					<stop  offset="0.004" style="stop-color:#00969E"/>
					<stop  offset="0.9104" style="stop-color:#16C4C4"/>
				</linearGradient>
				<path style="fill:url(#SVGID_00000146476698169233421630000016848453276758419121_);" d="M273.528,337.718
					c-23.41,5.038-41.407-15.297-40.615-34.813c0.791-19.516,21.565-45.605,48.791-21.363
					C300.957,298.685,294.363,333.234,273.528,337.718z"/>
				<path style="fill:none;stroke:#F9F9F9;stroke-linecap:round;stroke-linejoin:round;stroke-miterlimit:10;" d="M264.825,300.531
					c0,0-18.908,51.165-1.806,109.978"/>
			</g>
			<g>
				
					<linearGradient id="SVGID_00000000926323429356277220000012416920233231514806_" gradientUnits="userSpaceOnUse" x1="421.1679" y1="336.1749" x2="416.9481" y2="267.6035">
					<stop  offset="0" style="stop-color:#FAB217"/>
					<stop  offset="0.9104" style="stop-color:#F9C662"/>
				</linearGradient>
				<path style="fill:url(#SVGID_00000000926323429356277220000012416920233231514806_);" d="M419.11,336.663
					c30.312,1.671,43.78-74.11,0-76.747C375.33,257.278,385.616,334.816,419.11,336.663z"/>
				<path style="fill:none;stroke:#F9F9F9;stroke-linecap:round;stroke-linejoin:round;stroke-miterlimit:10;" d="M412.781,292.882
					c0,0,17.934,40.33-2.637,90.846"/>
			</g>
			<g>
				
					<linearGradient id="SVGID_00000133500175702337557730000014700462226908609178_" gradientUnits="userSpaceOnUse" x1="469.4887" y1="332.7237" x2="526.9833" y2="284.7238">
					<stop  offset="0.004" style="stop-color:#00969E"/>
					<stop  offset="0.9104" style="stop-color:#16C4C4"/>
				</linearGradient>
				<path style="fill:url(#SVGID_00000133500175702337557730000014700462226908609178_);" d="M470.539,329.014
					c20.835,33.231,88.509-13.011,67.187-44.044C510.726,245.674,447.809,292.76,470.539,329.014z"/>
				<path style="fill:none;stroke:#F9F9F9;stroke-linecap:round;stroke-linejoin:round;stroke-miterlimit:10;" d="M503.755,303.168
					c0,0-50.623,28.484-73.041,95.473"/>
			</g>
			<g>
				
					<linearGradient id="SVGID_00000083787941534957056500000017508056839361265561_" gradientUnits="userSpaceOnUse" x1="503.2768" y1="373.4639" x2="576.399" y2="373.4639">
					<stop  offset="0" style="stop-color:#FAB217"/>
					<stop  offset="0.9104" style="stop-color:#F9C662"/>
				</linearGradient>
				<path style="fill:url(#SVGID_00000083787941534957056500000017508056839361265561_);" d="M503.755,380.707
					c6.97,34.813,78.344,28.747,72.278-13.451C569.968,325.058,496.695,345.445,503.755,380.707z"/>
				<path style="fill:none;stroke:#F9F9F9;stroke-linecap:round;stroke-linejoin:round;stroke-miterlimit:10;" d="M536.473,373.464
					c0,0-60.674-2.312-98.909,47.3"/>
			</g>
		</g>
		<path style="fill:#00969E;" d="M407.812,350.113c-57.979-39.033-107.119-2.11-139.806,26.901
			c-32.687,29.011-82.83,8.967-82.83,57.231h264.543C451.141,413.193,446.978,376.48,407.812,350.113z"/>
	</g>
	<g>
		<g>
			<path style="fill:#7B7293;" d="M199.231,206.981h61.777c1.696,0,3.055-1.405,2.998-3.101l-2.798-83.169
				c-0.054-1.617-1.381-2.899-2.998-2.899h-55.978L199.231,206.981z"/>
			<path style="fill:#605575;" d="M193.791,117.812h8.44l-3,89.169h-8.238c-1.696,0-3.055-1.405-2.998-3.101l2.798-83.169
				C190.848,119.094,192.174,117.812,193.791,117.812z"/>
			<g>
				
					<circle style="fill:#605575;stroke:#423A64;stroke-linecap:round;stroke-linejoin:round;stroke-miterlimit:10;" cx="239.176" cy="129.035" r="1.5"/>
				
					<circle style="fill:#605575;stroke:#423A64;stroke-linecap:round;stroke-linejoin:round;stroke-miterlimit:10;" cx="218.165" cy="129.035" r="1.5"/>
				<path style="fill:none;stroke:#423A64;stroke-linecap:round;stroke-linejoin:round;stroke-miterlimit:10;" d="M218.165,129.035
					v-21.407c0-5.802,4.704-10.506,10.506-10.506l0,0c5.802,0,10.505,4.703,10.505,10.506v21.407"/>
			</g>
		</g>
		<g>
			<path style="fill:#EF8C89;" d="M448.104,164.515h-48.033c-1.657,0-3-1.343-3-3V94.053c0-1.657,1.343-3,3-3h48.033V164.515z"/>
			<path style="fill:#DB7272;" d="M448.104,91.053h6.099c1.657,0,3,1.343,3,3v67.462c0,1.657-1.343,3-3,3h-6.099V91.053z"/>
			<g>
				
					<circle style="fill:#DB7272;stroke:#423A64;stroke-linecap:round;stroke-linejoin:round;stroke-miterlimit:10;" cx="405.4" cy="98.371" r="1.5"/>
				
					<circle style="fill:#DB7272;stroke:#423A64;stroke-linecap:round;stroke-linejoin:round;stroke-miterlimit:10;" cx="443.774" cy="98.371" r="1.5"/>
				<path style="fill:none;stroke:#423A64;stroke-linecap:round;stroke-linejoin:round;stroke-miterlimit:10;" d="M443.774,98.371
					V85.315c0-10.596-8.59-19.187-19.187-19.187S405.4,74.719,405.4,85.315v13.056"/>
			</g>
		</g>
	</g>
	<g>
		<g>
			<path style="fill:#70CACC;" d="M301.154,124.388h-30.659c-1.038,0-1.879-0.841-1.879-1.879v-17.407
				c0-1.038,0.841-1.879,1.879-1.879h30.659c1.038,0,1.879,0.841,1.879,1.879v17.407
				C303.034,123.547,302.192,124.388,301.154,124.388z"/>
			<rect x="271.682" y="107.805" style="fill:#F9F9F9;" width="14.143" height="2.44"/>
			<rect x="271.682" y="115.322" style="fill:#F9F9F9;" width="28.22" height="2.44"/>
			<rect x="288.726" y="119.542" style="fill:#F9F9F9;" width="11.176" height="1.121"/>
			<g>
				<circle style="fill:#423A64;" cx="291.924" cy="109.256" r="3.198"/>
				<g>
					<path style="fill:#423A64;" d="M296.704,106.558c1.488,0,2.698,1.21,2.698,2.698c0,1.488-1.21,2.698-2.698,2.698
						s-2.698-1.21-2.698-2.698C294.006,107.768,295.216,106.558,296.704,106.558 M296.704,106.058c-1.766,0-3.198,1.432-3.198,3.198
						c0,1.766,1.432,3.198,3.198,3.198c1.766,0,3.198-1.432,3.198-3.198C299.902,107.49,298.47,106.058,296.704,106.058
						L296.704,106.058z"/>
				</g>
			</g>
		</g>
		<g>
			<polygon style="fill:#423A64;" points="331.22,422.377 312.297,434.245 346.451,434.245 345.091,421.496 			"/>
			<polygon style="fill:#423A64;" points="393.396,421.789 375.462,434.245 410.143,434.245 407.812,420.764 			"/>
			<g>
				<path style="fill:#70CACC;" d="M393.396,421.789c0,0,6.372,3.854,14.416-1.025c0,0-16.182-138.707-16.647-190.799l-35.818-4.6
					l-38.603,5.469c-2.942,53.087,0.1,137.589,14.476,191.542c0,0,7.739,2.482,13.871-0.881c0,0-4.838-110.152,6.767-161.053
					C351.858,260.443,369.66,364.294,393.396,421.789z"/>
				<path style="fill:none;stroke:#F9F9F9;stroke-width:0.5;stroke-linecap:round;stroke-linejoin:round;stroke-miterlimit:10;" d="
					M318.363,237.036c0,0,42.231,3.857,70.714-0.692"/>
				<path style="fill:none;stroke:#F9F9F9;stroke-width:0.5;stroke-linecap:round;stroke-linejoin:round;stroke-miterlimit:10;" d="
					M325.979,233.97c0,0,2.374,18.198-7.615,18.692"/>
				<path style="fill:none;stroke:#F9F9F9;stroke-width:0.5;stroke-linecap:round;stroke-linejoin:round;stroke-miterlimit:10;" d="
					M375.33,233.97c0,0-1.385,16.292,13.253,18.135"/>
			</g>
			<g>
				<g>
					<path style="fill:#F2A887;" d="M338.975,175.142l-5.183-9.248l-13.064-4.257l0,0c-1.9,4.434-3.723,9.051-5.336,13.326
						l-22.215-31.75c0,0,6.659-4.896,5.868-6.132c-0.791-1.236-5.159,1.698-8.621,1.352c-3.462-0.346-5.819-7.418-8.209-6.478
						c-1.359,0.534,0.989,5.637,0.989,5.637s-6.676-5.44-7.961-4.253c-1.286,1.187,1.055,3.61,1.055,3.61s-3.697-1.884-4.835-0.994
						c-1.137,0.89,2.79,3.911,2.79,3.911s-2.967,0.049-3.264,1.088s5.192,3.857,8.703,4.797c0,0,18.692,53.901,43.022,73.681
						L338.975,175.142L338.975,175.142z"/>
					
						<linearGradient id="SVGID_00000103980773658484829240000011826387913628573326_" gradientUnits="userSpaceOnUse" x1="343.9939" y1="199.8847" x2="310.3676" y2="184.4562">
						<stop  offset="0" style="stop-color:#000000"/>
						<stop  offset="0.9104" style="stop-color:#000000;stop-opacity:0"/>
					</linearGradient>
					<path style="opacity:0.45;fill:url(#SVGID_00000103980773658484829240000011826387913628573326_);" d="M333.792,165.893
						l-8.343-2.719c-4.956,8.433-11.813,21.923-17.45,39.73c4.562,6.496,9.509,12.294,14.716,16.527l16.26-44.29L333.792,165.893z"
						/>
					<path style="fill:#81467D;" d="M324.495,153.366c-1.266,2.58-2.533,5.387-3.768,8.27c3.001,3.824,8.546,9.125,18.247,13.506
						l18.833-51.299C344.572,126.959,332.111,137.838,324.495,153.366z"/>
					
						<linearGradient id="SVGID_00000069377162701311425030000005384766980583116448_" gradientUnits="userSpaceOnUse" x1="353.0593" y1="173.08" x2="325.5648" y2="159.036">
						<stop  offset="0" style="stop-color:#000000"/>
						<stop  offset="0.9104" style="stop-color:#000000;stop-opacity:0"/>
					</linearGradient>
					<path style="opacity:0.45;fill:url(#SVGID_00000069377162701311425030000005384766980583116448_);" d="M324.16,165.409
						c3.271,3.147,8.02,6.665,14.815,9.733l5.474-14.91l-12.376-7.212C332.072,153.02,328.74,157.321,324.16,165.409z"/>
				</g>
				<g>
					<path style="fill:#81467D;" d="M385.22,124.091c-4.929-4.019-11.868-3.165-22.945-1.385
						c-21.756,3.497-36.593,34.418-42.923,79.319c-1.102,7.818-1.988,17.618-2.608,28.81c16.144,1.309,45.247,2.682,74.421-0.87
						c-0.007-0.759-0.011-1.505-0.011-2.226C391.154,177.498,400.421,136.486,385.22,124.091z"/>
					
						<linearGradient id="SVGID_00000008841352351843557380000006078880483059648424_" gradientUnits="userSpaceOnUse" x1="403.4722" y1="160.0259" x2="377.2303" y2="172.4216">
						<stop  offset="0" style="stop-color:#000000"/>
						<stop  offset="0.9104" style="stop-color:#000000;stop-opacity:0"/>
					</linearGradient>
					<path style="opacity:0.45;fill:url(#SVGID_00000008841352351843557380000006078880483059648424_);" d="M391.887,201.062
						c0.861-17.539,2.161-33.234,2.058-46.02l-26.539-13.543C368.162,160.863,375.221,182.33,391.887,201.062z"/>
				</g>
				<g>
					<path style="fill:#F2A887;" d="M437.539,171.959c-0.751-4.697-13.514-19.748-28.532-32.404l-14.029,11.437l-7.677,18.995l0,0
						c7.248,5.584,14.123,9.334,15.984,10.609c3.561,2.439,4.681,5.407,3.231,9.429c-1.451,4.022-15.343,33.692-15.343,33.692
						c-0.242,3.058-0.006,6.528-0.006,6.528s-11.618,3.033-11.223,4.879c0.396,1.846,10.22-0.198,10.22-0.198
						s-9.956,3.297-9.165,5.143c0.791,1.846,9.824-1.582,9.824-1.582s-7.121,4.286-6.593,5.868c0.527,1.582,7.582-1.912,7.582-1.912
						s-4.549,4.484-3.099,5.67c1.451,1.187,9.429-9.824,9.429-9.824S438.726,179.377,437.539,171.959z"/>
					<path style="fill:#81467D;" d="M409.007,139.555c-8.699-7.331-18.152-13.861-26.471-17.103
						c-10.465-4.078-20.261,12.056-12.48,28.144c3.712,7.675,10.634,14.296,17.246,19.391
						C398.439,159.042,405.309,147.229,409.007,139.555z"/>
				</g>
			</g>
			<g>
				<g>
					<circle style="fill:#423A64;" cx="376.337" cy="66.267" r="11.967"/>
					
						<linearGradient id="SVGID_00000077289697692290096110000009723453787878916279_" gradientUnits="userSpaceOnUse" x1="361.0004" y1="82.3578" x2="383.7476" y2="58.7205">
						<stop  offset="0" style="stop-color:#000000"/>
						<stop  offset="0.628" style="stop-color:#000000;stop-opacity:0"/>
					</linearGradient>
					<path style="opacity:0.75;fill:url(#SVGID_00000077289697692290096110000009723453787878916279_);" d="M384.163,75.307
						c-4.164-9.652-12.447-13.696-17.976-15.358c-1.145,1.835-1.817,3.996-1.817,6.318c0,6.609,5.358,11.967,11.967,11.967
						C379.333,78.234,382.064,77.126,384.163,75.307z"/>
				</g>
				<path style="fill:#423A64;" d="M339.33,90.531c-3.231-7.582-3.231-19.187,10.813-24.396c14.044-5.209,22.022,4.681,22.022,4.681
					s6.8,1.695,10.371,13.253c2.816,9.115-2.986,23.934-15.647,29.337L339.33,90.531z"/>
				<g>
					<path style="fill:#F2A887;" d="M366.627,104.904l0.625,20.308c0,0-7.35,5.868-13.02,1.912l-0.593-14.044
						c0,0-12.989,3.824-15.824-6.528c-2.835-10.352,2.308-20.835,2.308-20.835s3.017,2.769,7.863,2.275
						c4.846-0.494,7.962-3.956,10.632-1.731c2.67,2.225,0.989,9.742,2.918,10.039c1.928,0.297-0.099-8.703,8.753-9
						C379.138,87.003,380.671,105.597,366.627,104.904z"/>
					
						<linearGradient id="SVGID_00000059268203829540100630000004093600647818077336_" gradientUnits="userSpaceOnUse" x1="353.2614" y1="111.7071" x2="359.2614" y2="116.1247">
						<stop  offset="0" style="stop-color:#000000"/>
						<stop  offset="0.628" style="stop-color:#000000;stop-opacity:0"/>
					</linearGradient>
					<path style="opacity:0.75;fill:url(#SVGID_00000059268203829540100630000004093600647818077336_);" d="M359.852,110.397
						c0,0-1.632,1.529-6.214,2.683l0.221,5.229C358.151,116.401,359.852,110.397,359.852,110.397z"/>
					<g>
						
							<path style="fill:none;stroke:#423A64;stroke-width:0.5773;stroke-linecap:round;stroke-linejoin:round;stroke-miterlimit:10;" d="
							M367.918,93.358c0,0,2.44-1.253,5.67,0.165"/>
						
							<path style="fill:none;stroke:#423A64;stroke-width:0.5773;stroke-linecap:round;stroke-linejoin:round;stroke-miterlimit:10;" d="
							M369.891,98.047c0,0,0.999-2.509,0.862-5.194"/>
					</g>
					<g>
						
							<path style="fill:none;stroke:#423A64;stroke-width:0.5773;stroke-linecap:round;stroke-linejoin:round;stroke-miterlimit:10;" d="
							M338.671,92.509c0,0,1.615-1.549,4.055,0"/>
						
							<path style="fill:none;stroke:#423A64;stroke-width:0.5773;stroke-linecap:round;stroke-linejoin:round;stroke-miterlimit:10;" d="
							M350.836,92.847c0,0,3.165-2.646,5.967,0.338"/>
					</g>
					
						<path style="fill:none;stroke:#423A64;stroke-width:0.5773;stroke-linecap:round;stroke-linejoin:round;stroke-miterlimit:10;" d="
						M346.583,92.847l-2.736,3.816c0,0,0.89,1.22,2.736,1.517"/>
					<g>
						<path style="fill:#EF8C89;" d="M360.886,104.777c0-3.059-2.48-5.538-5.538-5.538c-3.059,0-5.538,2.48-5.538,5.538
							s2.48,5.538,5.538,5.538C358.407,110.315,360.886,107.836,360.886,104.777z"/>
						<path style="fill:#EF8C89;" d="M343.049,105.343c0-3.059-2.48-5.538-5.538-5.538c-0.185,0-0.369,0.01-0.55,0.028
							c-0.007,2.172,0.23,4.449,0.852,6.72c0.438,1.598,1.118,2.856,1.955,3.845C341.701,109.533,343.049,107.597,343.049,105.343z"
							/>
					</g>
				</g>
			</g>
		</g>
	</g>
	<g>
		<g>
			<path style="fill:#7B7293;" d="M553.417,236.748H491.64c-1.696,0-3.055-1.406-2.998-3.101l2.798-83.169
				c0.054-1.617,1.381-2.899,2.998-2.899h55.978L553.417,236.748z"/>
			<path style="fill:#605575;" d="M558.856,147.579h-8.44l3,89.169h8.238c1.696,0,3.055-1.406,2.998-3.101l-2.798-83.169
				C561.8,148.861,560.474,147.579,558.856,147.579z"/>
			<g>
				
					<circle style="fill:#605575;stroke:#423A64;stroke-linecap:round;stroke-linejoin:round;stroke-miterlimit:10;" cx="513.471" cy="158.802" r="1.5"/>
				
					<circle style="fill:#605575;stroke:#423A64;stroke-linecap:round;stroke-linejoin:round;stroke-miterlimit:10;" cx="534.482" cy="158.802" r="1.5"/>
				<path style="fill:none;stroke:#423A64;stroke-linecap:round;stroke-linejoin:round;stroke-miterlimit:10;" d="M534.482,158.802
					v-21.407c0-5.802-4.703-10.506-10.505-10.506l0,0c-5.802,0-10.505,4.703-10.505,10.506v21.407"/>
			</g>
		</g>
		<g>
			<path style="fill:#EF8C89;" d="M232.724,277.124H294.5c1.696,0,3.055-1.405,2.998-3.101l-2.798-83.169
				c-0.054-1.617-1.381-2.899-2.998-2.899h-55.978L232.724,277.124z"/>
			<path style="fill:#DB7272;" d="M224.383,187.955h11.341l-3,89.169h-8.238c-1.696,0-3.055-1.405-2.998-3.101L224.383,187.955z"/>
			<g>
				
					<circle style="fill:#605575;stroke:#423A64;stroke-linecap:round;stroke-linejoin:round;stroke-miterlimit:10;" cx="272.669" cy="199.178" r="1.5"/>
				
					<circle style="fill:#605575;stroke:#423A64;stroke-linecap:round;stroke-linejoin:round;stroke-miterlimit:10;" cx="251.658" cy="199.178" r="1.5"/>
				<path style="fill:none;stroke:#423A64;stroke-linecap:round;stroke-linejoin:round;stroke-miterlimit:10;" d="M251.658,199.178
					v-21.407c0-5.802,4.704-10.505,10.506-10.505l0,0c5.802,0,10.505,4.703,10.505,10.505v21.407"/>
			</g>
		</g>
		<g>
			<path style="fill:#70CACC;" d="M198.418,233.126l-30.194,5.324c-1.022,0.18-1.997-0.502-2.177-1.524l-3.023-17.142
				c-0.18-1.022,0.502-1.997,1.524-2.177l30.194-5.324c1.022-0.18,1.997,0.502,2.177,1.524l3.023,17.142
				C200.123,231.971,199.44,232.945,198.418,233.126z"/>
			
				<rect x="166.619" y="220.667" transform="matrix(0.9848 -0.1736 0.1736 0.9848 -35.8916 33.5322)" style="fill:#F9F9F9;" width="14.143" height="2.439"/>
			
				<rect x="167.817" y="226.847" transform="matrix(0.9848 -0.1736 0.1736 0.9848 -36.8393 35.0559)" style="fill:#F9F9F9;" width="28.22" height="2.44"/>
			
				<rect x="185.35" y="229.532" transform="matrix(0.9848 -0.1737 0.1737 0.9848 -37.0549 36.6521)" style="fill:#F9F9F9;" width="11.176" height="1.121"/>
			<g>
				<path style="fill:#423A64;" d="M189.849,219.271c-0.307-1.739-1.965-2.901-3.704-2.594c-1.739,0.307-2.901,1.965-2.594,3.704
					c0.307,1.739,1.965,2.901,3.704,2.594C188.995,222.669,190.156,221.01,189.849,219.271z"/>
				<g>
					<path style="fill:#423A64;" d="M191.412,216.298c1.309,0,2.425,0.938,2.653,2.23c0.125,0.71-0.034,1.426-0.447,2.016
						c-0.413,0.59-1.032,0.984-1.741,1.109c-0.156,0.028-0.315,0.042-0.472,0.042c-1.309,0-2.425-0.938-2.653-2.23
						c-0.125-0.71,0.034-1.426,0.447-2.016c0.413-0.59,1.032-0.984,1.741-1.109C191.096,216.312,191.255,216.298,191.412,216.298
						 M191.412,215.798c-0.184,0-0.371,0.016-0.559,0.049c-1.739,0.307-2.901,1.965-2.594,3.704
						c0.273,1.551,1.623,2.643,3.145,2.643c0.184,0,0.371-0.016,0.559-0.049c1.739-0.307,2.901-1.965,2.594-3.704
						C194.284,216.89,192.934,215.798,191.412,215.798L191.412,215.798z"/>
				</g>
			</g>
		</g>
		<g>
			<path style="fill:#70CACC;" d="M153.114,194.992h-30.659c-1.038,0-1.879-0.841-1.879-1.879v-17.407
				c0-1.038,0.841-1.879,1.879-1.879h30.659c1.038,0,1.879,0.841,1.879,1.879v17.407
				C154.993,194.151,154.152,194.992,153.114,194.992z"/>
			<path style="fill:#F9F9F9;" d="M128.32,180.427h-3.291c-1.04,0-1.882-0.843-1.882-1.882l0,0c0-1.04,0.843-1.882,1.882-1.882
				h3.291c1.04,0,1.882,0.843,1.882,1.882l0,0C130.202,179.585,129.359,180.427,128.32,180.427z"/>
			<g>
				<path style="fill:#F9F9F9;" d="M130.902,177.163c0.762,0,1.382,0.62,1.382,1.382c0,0.762-0.62,1.382-1.382,1.382h-3.291
					c-0.762,0-1.382-0.62-1.382-1.382c0-0.762,0.62-1.382,1.382-1.382H130.902 M130.902,176.663h-3.291
					c-1.039,0-1.882,0.843-1.882,1.882s0.843,1.882,1.882,1.882h3.291c1.04,0,1.882-0.843,1.882-1.882
					S131.942,176.663,130.902,176.663L130.902,176.663z"/>
			</g>
			<rect x="120.576" y="185.926" style="fill:#423A64;" width="34.418" height="5.341"/>
			<rect x="138.048" y="176.663" style="fill:#F9F9F9;" width="14.313" height="1.121"/>
			<rect x="141.186" y="178.74" style="fill:#F9F9F9;" width="11.176" height="1.121"/>
			<rect x="120.576" y="183.487" style="fill:#F9F9F9;" width="34.418" height="1.121"/>
		</g>
		<g>
			<path style="fill:#70CACC;" d="M505.443,118.185l-30.194-5.324c-1.022-0.18-1.704-1.155-1.524-2.177l3.023-17.142
				c0.18-1.022,1.155-1.705,2.177-1.524l30.194,5.324c1.022,0.18,1.704,1.155,1.524,2.177l-3.023,17.142
				C507.439,117.683,506.465,118.365,505.443,118.185z"/>
			<path style="fill:#F9F9F9;" d="M483.554,99.535l-3.241-0.571c-1.024-0.181-1.707-1.157-1.527-2.18l0,0
				c0.181-1.024,1.157-1.707,2.181-1.527l3.241,0.571c1.024,0.18,1.707,1.157,1.527,2.18l0,0
				C485.554,99.032,484.578,99.716,483.554,99.535z"/>
			<g>
				<path style="fill:#F9F9F9;" d="M483.182,96.176L483.182,96.176c0.08,0,0.161,0.007,0.242,0.021l3.241,0.571
					c0.364,0.064,0.68,0.266,0.892,0.568c0.212,0.302,0.293,0.669,0.229,1.033c-0.117,0.662-0.688,1.143-1.359,1.143
					c-0.08,0-0.161-0.007-0.242-0.021l-3.241-0.571c-0.751-0.132-1.254-0.851-1.121-1.601
					C481.939,96.657,482.511,96.176,483.182,96.176 M483.182,95.676c-0.896,0-1.69,0.643-1.851,1.556
					c-0.181,1.024,0.503,2,1.527,2.181l3.241,0.571c0.111,0.019,0.22,0.029,0.329,0.029c0.896,0,1.691-0.643,1.851-1.556l0,0
					c0.181-1.024-0.503-2-1.527-2.18l-3.241-0.571C483.4,95.686,483.29,95.676,483.182,95.676L483.182,95.676z"/>
			</g>
			
				<rect x="474.248" y="106.554" transform="matrix(0.9848 0.1736 -0.1736 0.9848 26.4332 -83.6818)" style="fill:#423A64;" width="34.418" height="5.341"/>
			
				<rect x="493.583" y="98.752" transform="matrix(0.9848 0.1737 -0.1737 0.9848 24.8533 -85.4453)" style="fill:#F9F9F9;" width="14.313" height="1.121"/>
			
				<rect x="496.336" y="101.069" transform="matrix(0.9848 0.1736 -0.1736 0.9848 25.2723 -85.6118)" style="fill:#F9F9F9;" width="11.176" height="1.121"/>
			
				<rect x="475.038" y="104.184" transform="matrix(0.9848 0.1736 -0.1736 0.9848 25.6672 -83.8871)" style="fill:#F9F9F9;" width="34.418" height="1.121"/>
		</g>
		<g>
			<g>
				<path style="fill:#70CACC;" d="M418.209,224.177l7.935-29.615c0.269-1.003,1.299-1.597,2.301-1.329l16.814,4.505
					c1.002,0.269,1.597,1.299,1.329,2.301l-7.935,29.615c-0.269,1.003-1.299,1.597-2.301,1.329l-16.814-4.505
					C418.535,226.21,417.94,225.18,418.209,224.177z"/>
				
					<rect x="431.774" y="205.296" transform="matrix(-0.2588 0.9659 -0.9659 -0.2588 751.9047 -163.928)" style="fill:#F9F9F9;" width="14.143" height="2.439"/>
				
					<rect x="415.654" y="210.149" transform="matrix(-0.2588 0.9659 -0.9659 -0.2588 745.1611 -149.0451)" style="fill:#F9F9F9;" width="28.22" height="2.44"/>
				
					<rect x="418.531" y="218.118" transform="matrix(-0.2588 0.9659 -0.9659 -0.2588 745.1161 -134.3908)" style="fill:#F9F9F9;" width="11.176" height="1.121"/>
				<g>
					<path style="fill:#423A64;" d="M434.386,222.266c1.706,0.457,3.459-0.555,3.917-2.261c0.457-1.706-0.555-3.459-2.261-3.917
						c-1.706-0.457-3.459,0.555-3.917,2.261C431.668,220.056,432.681,221.809,434.386,222.266z"/>
					<g>
						<path style="fill:#423A64;" d="M433.975,221.096c0.235,0,0.471,0.031,0.7,0.093c1.437,0.385,2.293,1.867,1.908,3.304
							c-0.315,1.178-1.386,2-2.604,2c-0.235,0-0.471-0.031-0.7-0.093c-1.437-0.385-2.293-1.867-1.908-3.304
							C431.687,221.919,432.757,221.096,433.975,221.096 M433.975,220.596c-1.412,0-2.704,0.942-3.087,2.371
							c-0.457,1.706,0.555,3.459,2.261,3.917c0.277,0.074,0.556,0.11,0.83,0.11c1.412,0,2.704-0.942,3.087-2.371
							c0.457-1.706-0.555-3.459-2.261-3.917C434.527,220.632,434.249,220.596,433.975,220.596L433.975,220.596z"/>
					</g>
				</g>
			</g>
			<g>
				<path style="fill:#605575;" d="M442.018,212.417l-18.468-4.948c-2.984-0.799-4.755-3.867-3.955-6.85l10.45-38.998l29.273,7.844
					l-10.45,38.998C448.069,211.446,445.002,213.217,442.018,212.417z"/>
				<path style="fill:#423A64;" d="M430.044,161.62l29.273,7.844l1.117-4.17c0.953-3.556-1.158-7.212-4.714-8.165l-16.395-4.393
					c-3.556-0.953-7.212,1.158-8.165,4.714L430.044,161.62z"/>
				<path style="fill:#605575;" d="M456.801,165.561l-22.626-6.063c-0.19-0.051-0.303-0.246-0.252-0.436l0,0
					c0.051-0.19,0.246-0.303,0.436-0.252l22.626,6.063c0.19,0.051,0.303,0.246,0.252,0.436l0,0
					C457.186,165.499,456.991,165.611,456.801,165.561z"/>
				<g>
					<path style="fill:#7B7293;" d="M433.249,184.22l-4.724-1.266c-0.518-0.139-0.825-0.671-0.686-1.189l0.445-1.662
						c0.139-0.518,0.671-0.825,1.188-0.686l4.723,1.266c0.518,0.139,0.825,0.671,0.686,1.189l-0.445,1.662
						C434.299,184.051,433.767,184.359,433.249,184.22z"/>
					<path style="fill:#7B7293;" d="M441.607,186.46l-4.723-1.266c-0.518-0.139-0.825-0.671-0.686-1.189l0.445-1.662
						c0.139-0.518,0.671-0.825,1.188-0.686l4.723,1.266c0.518,0.139,0.825,0.671,0.686,1.189l-0.445,1.662
						C442.657,186.291,442.125,186.598,441.607,186.46z"/>
					<path style="fill:#7B7293;" d="M449.965,188.699l-4.723-1.266c-0.518-0.139-0.825-0.671-0.686-1.188l0.445-1.662
						c0.139-0.518,0.671-0.825,1.188-0.686l4.723,1.266c0.518,0.139,0.825,0.671,0.686,1.189l-0.445,1.662
						C451.015,188.531,450.483,188.838,449.965,188.699z"/>
					<path style="fill:#7B7293;" d="M431.788,189.672l-4.723-1.266c-0.518-0.139-0.825-0.671-0.686-1.189l0.445-1.662
						c0.139-0.518,0.671-0.825,1.189-0.686l4.723,1.266c0.518,0.139,0.825,0.671,0.686,1.189l-0.445,1.662
						C432.838,189.503,432.306,189.811,431.788,189.672z"/>
					<path style="fill:#7B7293;" d="M440.147,191.911l-4.723-1.266c-0.518-0.139-0.825-0.671-0.686-1.189l0.445-1.662
						c0.139-0.518,0.671-0.825,1.189-0.686l4.723,1.266c0.518,0.139,0.825,0.671,0.686,1.189l-0.445,1.662
						C441.196,191.743,440.664,192.05,440.147,191.911z"/>
					<path style="fill:#7B7293;" d="M448.505,194.151l-4.723-1.266c-0.518-0.139-0.825-0.671-0.686-1.189l0.445-1.662
						c0.139-0.518,0.671-0.825,1.189-0.686l4.723,1.266c0.518,0.139,0.825,0.671,0.686,1.188l-0.445,1.662
						C449.554,193.982,449.022,194.29,448.505,194.151z"/>
					<path style="fill:#7B7293;" d="M430.328,195.124l-4.723-1.266c-0.518-0.139-0.825-0.671-0.686-1.188l0.445-1.662
						c0.139-0.518,0.671-0.825,1.189-0.686l4.724,1.266c0.518,0.139,0.825,0.671,0.686,1.188l-0.445,1.662
						C431.378,194.955,430.845,195.262,430.328,195.124z"/>
					<path style="fill:#7B7293;" d="M438.686,197.363l-4.724-1.266c-0.518-0.139-0.825-0.671-0.686-1.189l0.445-1.662
						c0.139-0.518,0.671-0.825,1.189-0.686l4.723,1.266c0.518,0.139,0.825,0.671,0.686,1.188l-0.445,1.662
						C439.735,197.195,439.203,197.502,438.686,197.363z"/>
					<path style="fill:#7B7293;" d="M447.044,199.603l-4.723-1.266c-0.518-0.139-0.825-0.671-0.686-1.189l0.445-1.662
						c0.139-0.518,0.671-0.825,1.189-0.686l4.724,1.266c0.518,0.139,0.825,0.671,0.686,1.189l-0.445,1.662
						C448.094,199.434,447.561,199.742,447.044,199.603z"/>
					<path style="fill:#DB7272;" d="M428.867,200.576l-4.723-1.266c-0.518-0.139-0.825-0.671-0.686-1.189l0.445-1.662
						c0.139-0.518,0.671-0.825,1.189-0.686l4.723,1.266c0.518,0.139,0.825,0.671,0.686,1.188l-0.445,1.662
						C429.917,200.407,429.384,200.714,428.867,200.576z"/>
					<path style="fill:#FFE584;" d="M437.225,202.815l-4.723-1.266c-0.518-0.139-0.825-0.671-0.686-1.189l0.445-1.662
						c0.139-0.518,0.671-0.825,1.189-0.686l4.723,1.266c0.518,0.139,0.825,0.671,0.686,1.189l-0.445,1.662
						C438.275,202.647,437.743,202.954,437.225,202.815z"/>
					<path style="fill:#00969E;" d="M445.583,205.055l-4.724-1.266c-0.518-0.139-0.825-0.671-0.686-1.188l0.445-1.662
						c0.139-0.518,0.671-0.825,1.189-0.686l4.723,1.266c0.518,0.139,0.825,0.671,0.686,1.188l-0.445,1.662
						C446.633,204.886,446.101,205.193,445.583,205.055z"/>
				</g>
				<g>
					<path style="fill:#00969E;" d="M429.574,175.294l2.233-8.333c0.231-0.864,1.119-1.376,1.983-1.145l20.186,5.409
						c0.864,0.231,1.376,1.119,1.145,1.983l-2.233,8.333c-0.231,0.864-1.119,1.376-1.983,1.145l-20.186-5.409
						C429.855,177.046,429.342,176.158,429.574,175.294z"/>
					<g>
						<path style="fill:#F9F9F9;" d="M441.086,177.848c-0.082-0.022-0.16-0.067-0.223-0.133c-0.179-0.19-0.169-0.489,0.021-0.669
							c0.797-0.75,1.367-1.699,1.647-2.745c0.281-1.047,0.262-2.154-0.054-3.201c-0.075-0.251,0.066-0.514,0.316-0.59
							c0.248-0.073,0.514,0.065,0.59,0.316c0.367,1.216,0.388,2.502,0.062,3.72c-0.326,1.217-0.988,2.319-1.914,3.19
							C441.408,177.852,441.238,177.889,441.086,177.848z"/>
						<path style="fill:#F9F9F9;" d="M438.494,175.091c-0.082-0.022-0.159-0.067-0.222-0.132c-0.18-0.191-0.17-0.49,0.02-0.669
							c0.285-0.268,0.487-0.602,0.585-0.968c0.098-0.365,0.091-0.755-0.022-1.128c-0.075-0.251,0.066-0.514,0.316-0.59
							c0.249-0.074,0.514,0.065,0.59,0.316c0.164,0.542,0.174,1.111,0.03,1.647c-0.143,0.535-0.437,1.024-0.849,1.412
							C438.817,175.095,438.646,175.132,438.494,175.091z"/>
						<path style="fill:#F9F9F9;" d="M439.79,176.469c-0.082-0.022-0.16-0.067-0.223-0.133c-0.179-0.19-0.169-0.489,0.021-0.669
							c0.541-0.508,0.926-1.15,1.115-1.856c0.189-0.707,0.176-1.455-0.038-2.164c-0.075-0.251,0.066-0.514,0.316-0.59
							c0.248-0.074,0.513,0.065,0.59,0.316c0.265,0.878,0.281,1.807,0.046,2.683c-0.235,0.877-0.713,1.672-1.382,2.302
							C440.112,176.473,439.942,176.51,439.79,176.469z"/>
						<path style="fill:#F9F9F9;" d="M442.382,179.226c-0.083-0.022-0.16-0.067-0.222-0.133c-0.179-0.19-0.169-0.489,0.021-0.669
							c1.053-0.99,1.807-2.247,2.179-3.634c0.372-1.389,0.348-2.854-0.07-4.237c-0.076-0.25,0.066-0.514,0.316-0.59
							c0.249-0.074,0.514,0.066,0.59,0.316c0.469,1.553,0.496,3.197,0.078,4.756c-0.417,1.557-1.263,2.968-2.446,4.079
							C442.704,179.23,442.534,179.267,442.382,179.226z"/>
					</g>
				</g>
				<path style="fill:#423A64;" d="M423.55,207.469l18.468,4.949c2.984,0.799,6.051-0.971,6.85-3.955l-29.273-7.844
					C418.795,203.602,420.566,206.669,423.55,207.469z"/>
			</g>
		</g>
		<g>
			<path style="fill:#DB7272;" d="M499.976,253.929h-28.325c-1.956,0-3.541-1.585-3.541-3.541v-17.011
				c0-1.956,1.585-3.541,3.541-3.541h28.325c1.956,0,3.541,1.585,3.541,3.541v17.011
				C503.517,252.344,501.932,253.929,499.976,253.929z"/>
			<g>
				<rect x="481.273" y="224.858" style="fill:#70CACC;" width="31.775" height="17.407"/>
				
					<rect x="490.458" y="219.675" transform="matrix(-1.836970e-16 1 -1 -1.836970e-16 730.7227 -263.599)" style="fill:#00969E;" width="13.406" height="27.774"/>
				<path style="fill:none;stroke:#70CACC;stroke-width:0.5;stroke-miterlimit:10;" d="M497.16,239.309
					c-3.169,0-5.747-2.578-5.747-5.747c0-3.169,2.578-5.747,5.747-5.747c3.17,0,5.748,2.578,5.748,5.747
					C502.908,236.731,500.33,239.309,497.16,239.309z"/>
				<path style="fill:#70CACC;" d="M501.908,233.562c0-2.622-2.126-4.748-4.748-4.748s-4.747,2.126-4.747,4.748
					c0,2.622,2.125,4.747,4.747,4.747S501.908,236.184,501.908,233.562z"/>
				<rect x="482.498" y="226.083" style="fill:#70CACC;" width="2.511" height="2.511"/>
				<rect x="509.312" y="226.083" style="fill:#70CACC;" width="2.511" height="2.511"/>
				<rect x="482.498" y="238.529" style="fill:#70CACC;" width="2.511" height="2.511"/>
				<rect x="509.312" y="238.529" style="fill:#70CACC;" width="2.511" height="2.511"/>
			</g>
			<g>
				
					<rect x="475.526" y="218.636" transform="matrix(0.9962 -0.0872 0.0872 0.9962 -17.9436 43.6937)" style="fill:#70CACC;" width="31.775" height="17.407"/>
				
					<rect x="484.711" y="213.452" transform="matrix(0.0872 0.9962 -0.9962 0.0872 675.0593 -282.0179)" style="fill:#00969E;" width="13.406" height="27.774"/>
				<path style="fill:none;stroke:#70CACC;stroke-width:0.5;stroke-miterlimit:10;" d="M491.914,233.064
					c-3.157,0.276-5.95-2.067-6.226-5.224c-0.276-3.157,2.068-5.95,5.224-6.226c3.158-0.276,5.951,2.067,6.227,5.224
					C497.415,229.995,495.072,232.788,491.914,233.064z"/>
				<path style="fill:#70CACC;" d="M496.143,226.926c-0.229-2.612-2.531-4.544-5.143-4.316c-2.612,0.229-4.544,2.531-4.316,5.143
					c0.229,2.612,2.531,4.544,5.143,4.316C494.439,231.84,496.371,229.538,496.143,226.926z"/>
				
					<rect x="476.26" y="221.053" transform="matrix(0.9962 -0.0871 0.0871 0.9962 -17.5552 42.4555)" style="fill:#70CACC;" width="2.511" height="2.511"/>
				
					<rect x="502.972" y="218.716" transform="matrix(0.9962 -0.0871 0.0871 0.9962 -17.25 44.7742)" style="fill:#70CACC;" width="2.511" height="2.511"/>
				
					<rect x="477.345" y="233.451" transform="matrix(0.9962 -0.0871 0.0871 0.9962 -18.6315 42.5972)" style="fill:#70CACC;" width="2.511" height="2.511"/>
				
					<rect x="504.056" y="231.114" transform="matrix(0.9962 -0.0871 0.0871 0.9962 -18.3261 44.9157)" style="fill:#70CACC;" width="2.511" height="2.511"/>
			</g>
			<path style="fill:#EF8C89;" d="M497.702,253.929h-28.325c-1.956,0-3.541-1.585-3.541-3.541v-17.011
				c0-1.956,1.585-3.541,3.541-3.541h28.325c1.956,0,3.541,1.585,3.541,3.541v17.011
				C501.243,252.344,499.657,253.929,497.702,253.929z"/>
		</g>
		<g>
			
				<rect x="135.464" y="109.058" transform="matrix(0.9151 -0.4032 0.4032 0.9151 -34.6337 71.022)" style="fill:#70CACC;" width="31.775" height="17.407"/>
			
				<rect x="144.648" y="103.874" transform="matrix(0.4032 0.9151 -0.9151 0.4032 198.0914 -68.2233)" style="fill:#00969E;" width="13.406" height="27.774"/>
			<path style="fill:none;stroke:#70CACC;stroke-width:0.5;stroke-miterlimit:10;" d="M153.668,123.021
				c-2.9,1.278-6.299-0.042-7.576-2.942c-1.278-2.9,0.042-6.299,2.942-7.576c2.901-1.278,6.3,0.042,7.577,2.942
				C157.889,118.344,156.569,121.743,153.668,123.021z"/>
			<path style="fill:#70CACC;" d="M155.696,115.848c-1.057-2.399-3.859-3.488-6.259-2.43c-2.399,1.057-3.488,3.859-2.43,6.259
				c1.057,2.399,3.859,3.487,6.259,2.43C155.665,121.049,156.753,118.247,155.696,115.848z"/>
			
				<rect x="135.318" y="116.217" transform="matrix(0.9151 -0.4032 0.4032 0.9151 -35.7713 65.0375)" style="fill:#70CACC;" width="2.511" height="2.511"/>
			
				<rect x="159.856" y="105.406" transform="matrix(0.9151 -0.4032 0.4032 0.9151 -29.3293 74.0132)" style="fill:#70CACC;" width="2.511" height="2.511"/>
			
				<rect x="140.336" y="127.606" transform="matrix(0.9151 -0.4032 0.4032 0.9151 -39.9373 68.0276)" style="fill:#70CACC;" width="2.511" height="2.511"/>
			
				<rect x="164.874" y="116.795" transform="matrix(0.9151 -0.4032 0.4032 0.9151 -33.4953 77.0033)" style="fill:#70CACC;" width="2.511" height="2.511"/>
		</g>
		<g>
			
				<rect x="145.099" y="115.605" transform="matrix(0.6331 -0.7741 0.7741 0.6331 -37.1572 170.2235)" style="fill:#70CACC;" width="31.775" height="17.407"/>
			
				<rect x="154.284" y="110.421" transform="matrix(0.7741 0.6331 -0.6331 0.7741 115.0719 -73.836)" style="fill:#00969E;" width="13.406" height="27.774"/>
			<path style="fill:none;stroke:#70CACC;stroke-width:0.5;stroke-miterlimit:10;" d="M165.435,127.947
				c-2.006,2.453-5.634,2.816-8.087,0.81c-2.453-2.006-2.816-5.634-0.81-8.087c2.007-2.454,5.635-2.817,8.088-0.811
				C167.079,121.865,167.442,125.493,165.435,127.947z"/>
			<path style="fill:#70CACC;" d="M163.992,120.633c-2.03-1.66-5.021-1.36-6.681,0.669c-1.66,2.03-1.36,5.021,0.669,6.681
				c2.03,1.66,5.021,1.36,6.681-0.669C166.322,125.284,166.022,122.293,163.992,120.633z"/>
			
				<rect x="146.427" y="129.491" transform="matrix(0.6331 -0.7741 0.7741 0.6331 -47.0219 162.2886)" style="fill:#70CACC;" width="2.511" height="2.511"/>
			
				<rect x="163.402" y="108.735" transform="matrix(0.6331 -0.7741 0.7741 0.6331 -24.727 167.8136)" style="fill:#70CACC;" width="2.511" height="2.511"/>
			
				<rect x="156.06" y="137.37" transform="matrix(0.6331 -0.7741 0.7741 0.6331 -49.5865 172.6366)" style="fill:#70CACC;" width="2.511" height="2.511"/>
			
				<rect x="173.036" y="116.614" transform="matrix(0.6331 -0.7741 0.7741 0.6331 -27.2914 178.1618)" style="fill:#70CACC;" width="2.511" height="2.511"/>
		</g>
	</g>
</g>
</svg>
