<?xml version="1.0" standalone="no"?>
<!DOCTYPE svg PUBLIC "-//W3C//DTD SVG 20010904//EN"
 "http://www.w3.org/TR/2001/REC-SVG-20010904/DTD/svg10.dtd">
<svg version="1.0" xmlns="http://www.w3.org/2000/svg"
 width="636.000000pt" height="772.000000pt" viewBox="0 0 436.000000 572.000000"
 preserveAspectRatio="xMidYMid meet">

<g transform="translate(0.000000,572.000000) scale(0.100000,-0.100000)"
 stroke="none">
<path fill="#ff5758" d="M2167 5657 c-31 -8 -59 -12 -61 -9 -2 2 -13 -1 -24 -7 -10 -6 -34
-13 -53 -16 -18 -3 -42 -14 -53 -23 -11 -9 -16 -11 -12 -4 7 12 4 12 -15 1
-13 -7 -26 -14 -29 -14 -15 -2 -120 -60 -120 -67 0 -4 -6 -8 -14 -8 -20 0
-146 -100 -146 -116 0 -8 -4 -13 -8 -12 -14 5 -152 -146 -152 -167 0 -3 -11
-21 -24 -38 -29 -39 -66 -123 -58 -131 3 -3 1 -6 -5 -6 -10 0 -36 -68 -47
-120 -2 -14 -10 -49 -16 -78 -7 -29 -9 -59 -7 -66 3 -8 3 -17 -1 -21 -10 -9
-9 -5 -11 -195 l-1 -170 -257 -2 -258 -3 -1 -31 c-1 -18 -4 -40 -8 -49 -3 -10
-1 -25 6 -33 10 -12 10 -14 1 -9 -12 8 -27 -27 -22 -49 1 -5 -1 -16 -4 -24 -4
-8 -11 -42 -16 -75 -6 -33 -22 -127 -36 -210 -14 -82 -27 -163 -29 -180 -2
-16 -10 -64 -19 -105 -22 -111 -50 -281 -52 -315 -1 -17 -4 -35 -7 -40 -3 -6
-10 -39 -16 -75 -21 -119 -55 -325 -57 -345 -2 -11 -15 -87 -30 -170 -15 -82
-29 -163 -31 -180 -2 -16 -5 -43 -8 -60 -2 -16 -6 -37 -9 -45 -3 -8 -10 -46
-17 -85 -18 -116 -20 -125 -46 -275 -14 -80 -27 -156 -29 -170 -2 -14 -13 -79
-24 -145 -11 -66 -22 -133 -25 -150 -9 -52 -36 -207 -51 -290 -8 -44 -17 -99
-20 -123 l-7 -42 758 0 c417 0 761 -3 765 -7 4 -5 2 -37 -3 -73 -5 -36 -11
-79 -11 -97 -1 -17 -5 -29 -9 -26 -5 2 -8 -8 -8 -24 0 -15 -14 -68 -31 -118
-17 -49 -32 -97 -34 -105 -5 -23 -32 -85 -86 -195 -68 -138 -102 -198 -133
-232 -14 -15 -26 -33 -26 -40 0 -7 -5 -13 -11 -13 -6 0 -8 -7 -5 -16 3 -8 2
-13 -3 -10 -4 3 -17 -4 -27 -16 -17 -19 -13 -19 26 5 25 15 57 32 73 38 15 6
27 14 27 19 0 4 13 13 30 20 16 7 30 16 30 20 0 4 14 13 30 20 17 7 37 22 45
33 8 12 17 18 21 15 5 -6 186 120 204 141 3 3 24 19 47 35 24 16 43 33 43 37
0 5 6 9 14 9 8 0 21 8 28 18 7 10 32 33 55 51 23 19 40 38 37 43 -3 5 0 7 8 6
7 -2 12 3 10 10 -1 8 1 11 6 8 10 -6 83 60 75 68 -4 3 -1 6 5 6 7 0 20 8 30
19 9 10 41 44 71 75 48 50 53 57 40 73 -13 16 -12 17 2 5 14 -11 20 -8 40 16
43 53 64 85 61 94 -1 5 2 7 8 3 5 -3 10 1 10 10 0 9 4 14 9 11 4 -3 13 6 19
20 7 13 17 30 22 37 29 33 91 140 87 150 -2 6 -17 12 -33 13 -16 1 -42 5 -59
9 -16 4 -44 8 -62 9 -17 0 -29 4 -26 8 2 5 -4 8 -15 8 -11 0 -66 16 -123 36
-57 19 -111 36 -119 37 -8 1 -17 5 -20 8 -3 4 -23 15 -45 26 -82 40 -140 74
-160 93 -12 11 -24 20 -28 20 -4 0 -15 8 -25 17 -10 10 -46 44 -80 76 -34 32
-62 60 -62 63 0 3 -13 18 -30 34 -38 37 -123 199 -156 297 -31 92 -54 225 -54
313 0 70 23 244 39 299 6 19 8 38 4 44 -4 6 -1 7 7 2 10 -6 12 -4 7 8 -3 10
-2 17 3 17 6 0 9 3 8 8 -7 25 75 193 143 294 22 32 37 63 33 70 -4 6 -3 8 3 5
11 -7 50 30 55 53 2 8 20 27 41 42 34 26 42 39 38 61 -1 5 3 6 9 2 13 -8 81
55 73 69 -3 6 -3 8 2 4 4 -4 35 14 69 41 113 89 240 162 371 215 39 15 77 31
86 36 9 5 34 12 55 16 22 3 44 9 49 13 6 3 15 6 20 7 6 1 35 7 65 13 30 6 71
14 90 18 48 9 463 12 475 3 6 -4 30 -10 55 -13 25 -4 56 -9 70 -13 14 -3 34
-7 45 -9 11 -1 27 -5 35 -8 26 -11 135 -41 145 -42 6 0 12 -3 15 -6 3 -3 32
-16 65 -28 89 -33 243 -118 298 -163 27 -22 51 -37 54 -34 6 6 1 36 -32 226
-8 41 -16 93 -20 115 -3 22 -12 76 -20 120 -7 44 -23 136 -35 205 -12 69 -27
150 -33 180 -6 30 -10 61 -8 69 1 7 -1 11 -6 8 -4 -3 -9 18 -10 45 -3 84 6 79
-167 77 -86 -1 -154 -4 -154 -8 1 -3 -13 -35 -32 -71 -61 -118 -88 -178 -83
-184 4 -3 1 -6 -5 -6 -6 0 -21 -20 -33 -45 -13 -25 -28 -44 -33 -42 -7 2 -13
130 -17 388 -3 252 -9 393 -16 410 -7 15 -9 29 -6 32 3 3 -2 27 -10 54 -8 26
-18 61 -21 76 -4 17 -11 25 -18 21 -6 -4 -8 -3 -5 3 8 13 -20 85 -37 95 -6 4
-8 8 -4 8 9 0 -37 80 -80 138 -16 23 -32 38 -36 35 -3 -3 -6 -1 -6 6 0 29
-240 242 -240 214 0 -4 -4 -3 -8 3 -10 16 -98 64 -116 64 -9 0 -16 4 -16 8 0
8 -59 31 -97 38 -6 1 -27 7 -45 12 -89 29 -311 39 -401 19z m513 -61 c0 -2 -8
-10 -17 -17 -16 -13 -17 -12 -4 4 13 16 21 21 21 13z m-190 -323 c30 -9 61
-18 69 -19 7 -1 40 -19 72 -39 32 -20 64 -33 71 -29 6 4 8 3 5 -3 -4 -6 2 -18
13 -28 11 -10 20 -14 20 -9 0 5 7 -2 16 -14 8 -12 20 -19 26 -16 7 4 8 2 4 -4
-3 -6 2 -19 13 -29 45 -42 131 -196 131 -235 0 -10 4 -18 8 -18 12 0 12 0 18
-232 l6 -208 -528 0 c-291 0 -535 -4 -541 -8 -15 -9 -154 -282 -145 -282 4 0
2 -4 -3 -8 -6 -4 -18 -19 -28 -34 -10 -16 -22 -28 -27 -28 -15 0 -13 658 2
740 6 36 12 75 12 87 1 12 3 19 5 17 3 -2 18 24 34 58 47 97 96 157 195 237
23 18 39 37 36 42 -3 5 2 6 11 3 8 -4 21 -1 28 5 26 21 149 61 215 70 87 11
193 5 262 -16z m453 -388 c-7 -21 -12 -19 -10 4 0 11 5 18 9 15 4 -3 5 -11 1
-19z m-1233 -3231 c0 -8 -19 -13 -24 -6 -3 5 1 9 9 9 8 0 15 -2 15 -3z m185
-1152 c-3 -3 -11 0 -18 7 -9 10 -8 11 6 5 10 -3 15 -9 12 -12z"/>
<path fill="#cb2c3e" d="M3010 3180 c-302 -43 -623 -239 -759 -464 -66 -110 -111 -261 -111
-372 0 -64 28 -189 57 -258 69 -164 213 -307 390 -387 114 -52 221 -73 378
-74 77 0 159 3 183 8 34 6 42 4 42 -8 0 -36 -94 -296 -145 -402 -90 -185 -184
-326 -336 -499 -76 -88 -273 -270 -334 -310 -13 -9 -22 -21 -18 -27 3 -5 1 -7
-4 -4 -9 6 -133 -67 -133 -78 0 -4 86 13 196 40 361 86 708 253 1020 490 104
79 335 309 411 410 190 253 296 476 344 727 27 143 23 339 -10 463 -84 318
-344 587 -673 696 -143 48 -357 68 -498 49z"/>
</g>
</svg>
